<svg width="500" height="325" viewBox="0 0 500 325" fill="none" xmlns="http://www.w3.org/2000/svg">
<g clip-path="url(#clip0_139_623)">
<path d="M499.999 152.596C499.999 179.444 479.358 201.685 452.668 203.791C452.208 203.791 451.814 203.857 451.354 203.857V155.163C451.354 154.175 450.893 153.254 450.17 152.596C450.105 152.53 450.105 152.53 450.039 152.465C449.973 152.399 449.973 152.399 449.907 152.333C448.987 151.741 447.804 151.609 446.752 152.07L446.226 150.885C446.818 150.622 447.475 150.491 448.133 150.491L410.662 118.181C410.925 117.852 411.254 117.523 411.582 117.194C431.106 96.598 463.515 95.7426 484.091 115.286C494.215 125.025 499.999 138.514 499.999 152.596Z" fill="#E3EBF1"/>
<path d="M13.0168 187.604C12.2937 183.985 14.6602 180.497 18.2758 179.839C18.6702 179.773 19.0646 179.707 19.459 179.707L49.041 144.503L56.4036 153.979L26.2958 186.748C26.0985 190.433 23.0089 193.263 19.3276 193.065C16.1722 192.868 13.5427 190.631 13.0168 187.604Z" fill="#FFB8B8"/>
<path d="M153.366 144.24C153.169 144.569 152.972 144.832 152.84 145.161L120.563 149.767L115.633 143.516L105.246 149.702L114.975 164.902L154.352 153.255C157.179 155.821 161.517 155.624 164.081 152.794C166.645 149.965 166.448 145.622 163.621 143.056C160.794 140.489 156.456 140.687 153.892 143.516C153.695 143.779 153.497 143.977 153.366 144.24Z" fill="#FFB8B8"/>
<path d="M98.2129 261.895L103.932 267.62L128.584 248.274L120.169 239.852L98.2129 261.895Z" fill="#FFB8B8"/>
<path d="M109.649 283.873L91.7031 265.975L98.6056 259.065L109.649 270.054C113.462 273.871 113.462 280.057 109.649 283.873Z" fill="#1D2F38"/>
<path d="M67.8418 316.511H75.9275L79.7403 285.387H67.8418V316.511Z" fill="#FFB8B8"/>
<path d="M91.4418 324.013H66.1328V314.208H81.6469C87.1031 314.208 91.4418 318.551 91.4418 324.013Z" fill="#1D2F38"/>
<path d="M66.1313 292.494L56.928 224.717C55.4818 214.452 55.942 204.055 58.2428 193.987C60.1492 185.893 62.6472 180.3 65.8026 177.339C66.3285 176.878 66.9202 176.615 67.5775 176.483L97.8825 173.325C99.0658 173.193 100.249 173.785 100.841 174.838L101.827 176.483C101.958 176.681 102.024 176.878 102.09 177.141L108.466 197.014C108.664 197.606 109.058 198.132 109.65 198.396C119.707 203.528 152.51 220.966 150.67 228.468C148.895 235.508 132.395 246.958 127.399 250.314C126.347 251.038 124.966 250.972 123.98 250.314L115.632 244.589C114.251 243.602 113.857 241.694 114.843 240.312C115.04 240.049 115.303 239.786 115.566 239.588L121.285 235.377C122.337 234.587 122.6 233.074 121.811 232.021C121.548 231.626 121.154 231.363 120.693 231.165L89.8626 220.308C88.6135 219.847 87.2331 220.505 86.7729 221.756C86.7072 221.953 86.6414 222.15 86.6414 222.348L80.988 291.901C80.8565 293.415 79.6075 294.665 78.0955 294.731L69.2867 295.192C69.221 295.192 69.1552 295.192 69.1552 295.192C67.6433 295.126 66.3285 294.007 66.1313 292.494Z" fill="#1D2F38"/>
<path d="M80.0035 117.194C88.9347 117.194 96.1749 109.947 96.1749 101.007C96.1749 92.0667 88.9347 84.8193 80.0035 84.8193C71.0722 84.8193 63.832 92.0667 63.832 101.007C63.832 109.947 71.0722 117.194 80.0035 117.194Z" fill="#FFB8B8"/>
<path d="M64.9493 174.509L53.0508 131.079L53.248 130.948C53.5109 130.75 79.1486 113.839 109.125 127.46L109.651 127.789L102.617 172.864C102.288 174.97 100.513 176.549 98.4097 176.681L69.4194 177.799C69.3537 177.799 69.288 177.799 69.2222 177.799C67.1844 177.799 65.4752 176.417 64.9493 174.509Z" fill="#AABCC5"/>
<path d="M52.5904 159.374L42.664 147.99C41.6779 146.872 41.6779 145.161 42.5983 144.042L52.9191 131.276L60.8733 133.448L65.0805 148.188L57.3892 159.177C56.8633 159.966 55.943 160.427 55.0227 160.493C54.9569 160.493 54.8912 160.493 54.8254 160.493C54.0366 160.427 53.182 160.032 52.5904 159.374Z" fill="#AABCC5"/>
<path d="M107.349 157.006C106.429 156.94 105.508 156.48 104.982 155.69L97.291 144.701L100.972 129.171L108.269 127.197L109.65 127.855L119.773 140.621C120.694 141.805 120.694 143.451 119.708 144.569L109.781 155.953C109.19 156.611 108.335 157.006 107.48 157.006C107.415 157.006 107.349 157.006 107.349 157.006Z" fill="#AABCC5"/>
<path d="M451.355 151.872C451.355 152.004 451.289 152.201 451.223 152.333C450.961 152.596 450.566 152.662 450.303 152.399L448.068 150.491L410.598 118.181L305.549 27.6368C304.3 26.5839 302.459 26.5839 301.276 27.6368L159.875 150.622L158.625 151.741C158.56 151.807 158.494 151.807 158.494 151.872C158.363 151.938 158.297 151.938 158.165 151.938C158.034 151.938 157.837 151.872 157.771 151.741C157.508 151.478 157.574 151.083 157.837 150.82L158.034 150.688L300.421 26.6497C302.131 25.1363 304.694 25.1363 306.469 26.6497L411.518 117.26L451.092 151.412C451.223 151.543 451.289 151.741 451.355 151.872Z" fill="#1D2F38"/>
<path d="M371.483 171.351L369.774 166.613L363.792 150.162L350.973 114.76L336.642 75.1469L310.742 3.68506C309.69 0.789739 306.469 -0.723725 303.576 0.32912L154.023 54.6164C151.131 55.6693 149.619 58.8936 150.671 61.7889L187.352 163.059L187.944 164.77L226.466 182.208L237.313 187.143L239.088 187.933L284.907 208.727L286.682 208.069L316.724 197.145L362.083 180.695L368.196 178.457C371.023 177.47 372.535 174.246 371.483 171.351Z" fill="#C4C4C4"/>
<path d="M308.768 86.9913C307.191 82.7141 302.523 80.5426 298.25 82.0561L239.087 103.508L210.491 113.905C206.218 115.418 204.049 120.156 205.56 124.433C207.072 128.71 211.806 130.882 216.078 129.368L239.021 121.011L303.838 97.5197C308.111 96.0063 310.28 91.2685 308.768 86.9913Z" fill="white"/>
<path d="M319.156 115.747C317.578 111.47 312.911 109.298 308.638 110.812L298.646 114.431L239.087 136.08L220.944 142.66C216.671 144.24 214.502 148.912 216.014 153.189C217.526 157.466 222.259 159.638 226.532 158.124L239.087 153.584L314.226 126.276C314.423 126.21 314.554 126.144 314.751 126.078C318.696 124.367 320.668 119.827 319.156 115.747Z" fill="white"/>
<path d="M329.741 144.832C328.163 140.555 323.496 138.383 319.223 139.897L291.087 150.096L269.328 157.993L239.089 168.982L231.397 171.745C227.782 173.061 225.547 176.746 226.072 180.563C226.138 181.089 226.27 181.682 226.467 182.208L237.314 187.143L239.089 186.485L293.979 166.547L324.81 155.361C329.083 153.847 331.253 149.109 329.741 144.832Z" fill="white"/>
<path d="M268.077 58.6964C266.499 54.4192 261.832 52.2477 257.559 53.7611L223.573 66.0663C219.3 67.6455 217.131 72.3175 218.643 76.5947C220.154 80.8719 224.888 83.0434 229.161 81.5299L239.941 77.6476L247.041 75.0812L263.147 69.2248C267.42 67.7113 269.655 62.9735 268.077 58.6964Z" fill="white"/>
<path d="M403.694 75.0811H244.609C242.703 75.0811 240.928 76.0681 239.876 77.6474C239.284 78.5686 239.021 79.5556 239.021 80.6743V187.933L284.841 208.727L291.283 211.688L301.472 216.294C302.655 216.82 304.036 216.82 305.285 216.294L315.474 211.688L347.357 197.211L377.07 183.721L409.216 169.113V80.6743C409.282 77.5816 406.784 75.0811 403.694 75.0811Z" fill="#17A550"/>
<path d="M370.826 150.096H277.479C273.074 150.096 269.459 153.583 269.262 157.992C269.262 158.124 269.262 158.189 269.262 158.321C269.262 162.861 272.943 166.546 277.479 166.546H370.826C375.362 166.546 379.043 162.861 379.043 158.321C379.043 153.781 375.362 150.096 370.826 150.096Z" fill="white"/>
<path d="M376.151 182.668C374.639 181.418 372.798 180.694 370.826 180.694H277.479C272.943 180.694 269.262 184.379 269.262 188.92C269.262 193.46 272.943 197.145 277.479 197.145H347.424L377.137 183.655C376.874 183.326 376.545 182.997 376.151 182.668Z" fill="white"/>
<path d="M291.35 211.622L301.539 216.228C302.722 216.755 304.103 216.755 305.352 216.228L315.541 211.622H291.35Z" fill="white"/>
<path d="M349.986 115.024C348.803 111.799 345.713 109.628 342.295 109.628H306.139C302.918 109.628 299.96 111.536 298.645 114.432C298.185 115.484 297.922 116.669 297.922 117.853C297.922 122.394 301.603 126.079 306.139 126.079H342.295C346.831 126.079 350.512 122.394 350.512 117.853C350.446 116.932 350.315 115.945 349.986 115.024Z" fill="white"/>
<path d="M344.202 197.145L312.319 211.622L304.759 215.044C303.904 215.438 302.918 215.438 302.064 215.044L294.504 211.622H291.283L301.472 216.228C302.655 216.754 304.036 216.754 305.285 216.228L315.474 211.622L347.357 197.145H344.202ZM344.202 197.145L312.319 211.622L304.759 215.044C303.904 215.438 302.918 215.438 302.064 215.044L294.504 211.622H291.283L301.472 216.228C302.655 216.754 304.036 216.754 305.285 216.228L315.474 211.622L347.357 197.145H344.202ZM344.202 197.145L312.319 211.622L304.759 215.044C303.904 215.438 302.918 215.438 302.064 215.044L294.504 211.622H291.283L301.472 216.228C302.655 216.754 304.036 216.754 305.285 216.228L315.474 211.622L347.357 197.145H344.202ZM451.354 151.873C451.091 151.61 450.828 151.412 450.565 151.215C449.25 150.359 447.607 150.228 446.161 150.886L376.216 182.603L344.267 197.079L312.385 211.556L304.825 214.978C303.97 215.373 302.984 215.373 302.13 214.978L294.57 211.556L286.681 208.003L239.087 186.419L226.137 180.497L187.352 163.059L160.662 150.952C160.399 150.82 160.136 150.754 159.808 150.688C159.15 150.557 158.493 150.491 157.836 150.623C155.666 151.083 154.154 152.926 154.154 155.163V320.394C154.154 322.96 156.192 325 158.756 325H448.001C450.565 325 452.603 322.96 452.603 320.394V155.097C452.669 153.913 452.143 152.728 451.354 151.873ZM451.354 320.394C451.354 322.236 449.908 323.684 448.067 323.684H158.822C156.981 323.684 155.535 322.236 155.535 320.394V155.097C155.535 153.979 156.126 152.926 157.047 152.334C157.375 152.136 157.704 152.005 158.099 151.873C158.23 151.873 158.296 151.807 158.427 151.807C158.559 151.807 158.69 151.807 158.822 151.807C159.282 151.807 159.742 151.939 160.202 152.136L188.009 164.77L226.531 182.208L237.378 187.143L239.153 187.933L284.972 208.727L291.414 211.688L301.604 216.294C302.787 216.82 304.167 216.82 305.416 216.294L315.606 211.688L347.488 197.211L377.202 183.721L446.752 152.202C447.738 151.741 448.922 151.807 449.908 152.465C449.973 152.465 450.039 152.531 450.039 152.597C450.105 152.663 450.171 152.663 450.171 152.728C450.959 153.321 451.354 154.308 451.354 155.295V320.394ZM344.202 197.145L312.319 211.622L304.759 215.044C303.904 215.438 302.918 215.438 302.064 215.044L294.504 211.622H291.283L301.472 216.228C302.655 216.754 304.036 216.754 305.285 216.228L315.474 211.622L347.357 197.145H344.202ZM344.202 197.145L312.319 211.622L304.759 215.044C303.904 215.438 302.918 215.438 302.064 215.044L294.504 211.622H291.283L301.472 216.228C302.655 216.754 304.036 216.754 305.285 216.228L315.474 211.622L347.357 197.145H344.202ZM237.312 187.143L239.087 187.933V186.485L237.312 187.143ZM344.202 197.145L312.319 211.622L304.759 215.044C303.904 215.438 302.918 215.438 302.064 215.044L294.504 211.622H291.283L301.472 216.228C302.655 216.754 304.036 216.754 305.285 216.228L315.474 211.622L347.357 197.145H344.202Z" fill="#1D2F38"/>
<path d="M115.369 325H41.0851C40.6907 325 40.4277 324.736 40.4277 324.342C40.4277 323.947 40.6907 323.684 41.0851 323.684H115.369C115.763 323.684 116.026 323.947 116.026 324.342C116.026 324.736 115.763 325 115.369 325Z" fill="#1D2F38"/>
<path d="M73.8883 112.852C70.4042 111.075 69.0237 106.864 70.7987 103.376C71.5875 101.797 72.9023 100.613 74.5457 100.02C79.4103 98.1122 84.8665 101.995 89.994 100.876C95.0558 99.7572 98.014 93.7034 96.8307 88.6366C95.6475 83.5698 91.1773 79.7532 86.3127 77.9107C79.8704 75.476 72.6393 76.134 66.7887 79.6874C60.938 83.3065 57.2567 89.6236 56.9938 96.5329C56.8623 103.442 60.4121 109.957 66.3285 113.51C67.6433 114.234 69.1552 114.892 70.6014 114.497C71.719 114.168 72.8365 113.576 73.8883 112.852Z" fill="#1D2F38"/>
<path d="M68.63 79.2927C64.3571 73.5679 58.5065 68.8959 51.8012 66.5928C45.096 64.2897 37.3389 64.4871 31.0281 67.7114C24.7173 70.9357 19.9842 77.516 19.4583 84.6227C18.6695 96.4672 28.7931 106.535 29.7791 118.38C30.8967 130.882 21.6277 141.871 9.13752 142.99C6.04786 143.253 2.89245 142.924 0 141.937C5.12753 146.148 11.8328 148.057 18.4065 147.201C24.9803 146.214 30.8309 142.332 34.1835 136.541C36.4844 132.593 37.4047 127.987 37.7334 123.446C38.325 116.208 37.5362 108.97 35.4326 102.06C34.315 98.3097 32.7373 94.4273 33.4604 90.545C34.315 86.3994 37.5362 83.1751 41.6119 82.3196C44.8988 81.7274 48.1856 82.7144 51.2753 83.8331C54.365 84.9517 57.5204 86.3336 60.8073 86.3994C64.0941 86.4652 67.7097 84.9517 69.0245 81.9248L68.63 79.2927Z" fill="#1D2F38"/>
</g>
<defs>
<clipPath id="clip0_139_623">
<rect width="500" height="325" fill="white"/>
</clipPath>
</defs>
</svg>
