<svg width="1158" height="433" viewBox="0 0 1158 433" fill="none" xmlns="http://www.w3.org/2000/svg">
<g filter="url(#filter0_d_139_478)">
<path d="M4 10C4 4.47715 8.47715 0 14 0H1144C1149.52 0 1154 4.47715 1154 10V415C1154 420.523 1149.52 425 1144 425H14C8.47716 425 4 420.523 4 415V10Z" fill="#E3EBF1"/>
<path d="M511.908 370.43C511.908 370.43 511.839 370.43 511.793 370.43C509.47 370.404 507.63 369.69 507.699 368.832L509.24 348.491C509.309 347.633 511.149 346.936 513.564 346.978C515.887 347.004 517.727 347.718 517.658 348.576L516.117 368.917C516.048 369.758 514.185 370.43 511.908 370.43Z" fill="white"/>
<path d="M378.439 203.864C376.507 203.864 374.759 203.371 374.322 202.64L370.297 195.764C369.814 194.922 371.24 194.098 373.517 193.919C375.794 193.741 378.025 194.268 378.508 195.109L382.533 201.986C383.016 202.827 381.59 203.652 379.313 203.83C379.014 203.856 378.715 203.864 378.416 203.864H378.439Z" fill="white"/>
<path d="M231.078 389.988C229.353 389.988 227.72 389.589 227.122 388.951L220.751 382.33C219.969 381.522 221.119 380.63 223.304 380.341C225.489 380.052 227.904 380.477 228.686 381.284L235.057 387.906C235.839 388.713 234.689 389.606 232.504 389.895C232.044 389.954 231.561 389.988 231.101 389.988H231.078Z" fill="white"/>
<path d="M728.316 289.994C727.879 289.994 727.442 289.969 727.005 289.918L693.379 285.821C691.171 285.549 689.975 284.673 690.711 283.857C691.447 283.041 693.816 282.599 696.024 282.871L729.65 286.968C731.858 287.24 733.054 288.116 732.318 288.932C731.743 289.586 730.087 290.003 728.316 290.003V289.994Z" fill="white"/>
<path d="M1029.02 242.7C1028.17 242.7 1027.32 242.607 1026.58 242.411L1011.61 238.467C1009.72 237.966 1009.28 236.997 1010.62 236.3C1011.95 235.603 1014.6 235.433 1016.48 235.934L1031.46 239.878C1033.34 240.371 1033.78 241.349 1032.44 242.046C1031.62 242.471 1030.33 242.7 1029.02 242.7Z" fill="white"/>
<path d="M854.517 9.49436C853.758 9.49436 852.999 9.41786 852.309 9.26486L830.896 4.36886C828.918 3.91836 828.32 2.95786 829.539 2.22686C830.758 1.49586 833.357 1.27486 835.335 1.72536L856.748 6.62136C858.726 7.07186 859.324 8.03236 858.105 8.76336C857.3 9.23936 855.943 9.50286 854.517 9.50286V9.49436Z" fill="white"/>
<path d="M612.627 218.008C611.086 218.008 609.591 217.694 608.855 217.15C607.82 216.385 608.671 215.45 610.741 215.067L626.68 212.135C628.75 211.752 631.28 212.067 632.315 212.832C633.35 213.597 632.499 214.532 630.429 214.914L614.49 217.847C613.892 217.957 613.248 218.008 612.627 218.008Z" fill="white"/>
<path d="M156.053 233.35C155.317 233.35 154.558 233.274 153.868 233.121C151.89 232.67 151.269 231.718 152.465 230.987L174.936 217.396C176.155 216.665 178.731 216.435 180.709 216.877C182.687 217.328 183.308 218.28 182.112 219.011L159.641 232.602C158.859 233.078 157.456 233.35 156.053 233.35Z" fill="white"/>
<path d="M161.78 9.53713C159.595 9.53713 157.755 8.90813 157.594 8.09213C157.433 7.23363 159.181 6.49413 161.481 6.43463L224.593 4.76863C226.962 4.72613 228.917 5.35513 229.078 6.20513C229.239 7.06363 227.491 7.80313 225.191 7.86263L162.079 9.52863C162.079 9.52863 161.872 9.52863 161.78 9.52863V9.53713Z" fill="white"/>
<path d="M1058.92 168.699C1057.56 168.699 1056.23 168.461 1055.42 168.011L1045.05 162.316C1043.76 161.602 1044.27 160.641 1046.2 160.157C1048.13 159.681 1050.73 159.868 1052.04 160.582L1062.41 166.277C1063.7 166.991 1063.2 167.951 1061.26 168.436C1060.55 168.614 1059.72 168.699 1058.92 168.699Z" fill="white"/>
<path d="M464.46 184C463.333 184 462.229 183.838 461.401 183.507C459.814 182.886 459.883 181.9 461.585 181.305L469.589 178.517C471.268 177.931 473.936 177.956 475.546 178.585C477.133 179.206 477.064 180.192 475.362 180.787L467.358 183.575C466.553 183.855 465.518 184 464.483 184H464.46Z" fill="white"/>
<path d="M1051.7 95.4724C1051.37 95.4724 1051.03 95.4554 1050.71 95.4299C1048.45 95.2259 1047.05 94.3844 1047.6 93.5514L1050.94 88.4429C1051.49 87.6099 1053.77 87.0914 1056.02 87.2954C1058.27 87.4994 1059.68 88.3409 1059.13 89.1739L1055.79 94.2824C1055.33 94.9964 1053.61 95.4724 1051.7 95.4724Z" fill="white"/>
<path d="M281.149 285.608C280.436 285.608 279.723 285.54 279.056 285.404L267.924 283.05C265.9 282.625 265.21 281.673 266.36 280.925C267.51 280.177 270.086 279.922 272.11 280.347L283.242 282.701C285.266 283.126 285.956 284.078 284.806 284.826C284.024 285.328 282.621 285.608 281.149 285.608Z" fill="white"/>
<path d="M1131.23 197.956C1131.05 197.956 1130.88 197.956 1130.7 197.948L1119.57 197.438C1117.27 197.336 1115.61 196.554 1115.91 195.704C1116.19 194.854 1118.33 194.25 1120.6 194.352L1131.74 194.862C1134.04 194.964 1135.69 195.746 1135.39 196.596C1135.14 197.387 1133.32 197.965 1131.23 197.965V197.956Z" fill="white"/>
<path d="M933.683 219.368C932.878 219.368 932.073 219.283 931.337 219.105L897.504 210.715C895.572 210.239 895.066 209.27 896.354 208.556C897.642 207.842 900.264 207.655 902.196 208.131L936.029 216.512C937.961 216.988 938.467 217.957 937.179 218.671C936.374 219.122 935.04 219.36 933.683 219.36V219.368Z" fill="white"/>
<path d="M539.762 11.8154C538.244 11.8154 536.772 11.5094 536.013 10.9739C534.955 10.2089 535.76 9.27389 537.807 8.87439L566.005 3.47689C568.075 3.08589 570.605 3.38339 571.686 4.13989C572.744 4.90489 571.939 5.83989 569.892 6.23939L541.694 11.6369C541.073 11.7559 540.406 11.8069 539.762 11.8069V11.8154Z" fill="white"/>
<path d="M802.538 161.746C802.009 161.746 801.457 161.704 800.928 161.627L777.146 157.964C775.007 157.632 773.995 156.723 774.869 155.932C775.766 155.142 778.227 154.768 780.366 155.091L804.148 158.754C806.287 159.086 807.299 159.995 806.425 160.786C805.758 161.381 804.194 161.746 802.538 161.746Z" fill="white"/>
<path d="M474.533 24.5476C473.015 24.5476 471.544 24.2416 470.808 23.7146L446.381 6.45112C445.3 5.69462 446.105 4.75112 448.152 4.35162C450.222 3.95212 452.752 4.24962 453.833 5.00612L478.259 22.2696C479.34 23.0261 478.535 23.9696 476.488 24.3691C475.867 24.4881 475.2 24.5476 474.533 24.5476Z" fill="white"/>
<path d="M539.945 203.481C537.714 203.481 535.851 202.827 535.736 201.994L535.046 196.29C534.954 195.432 536.748 194.709 539.071 194.667C541.371 194.641 543.349 195.296 543.464 196.154L544.154 201.858C544.246 202.716 542.452 203.439 540.129 203.481C540.06 203.481 540.014 203.481 539.945 203.481Z" fill="white"/>
<path d="M921.01 12.138C920.32 12.138 919.63 12.0785 918.986 11.9425C916.962 11.526 916.203 10.5825 917.33 9.83447L925.38 4.42847C926.507 3.68047 929.06 3.40847 931.084 3.81647C933.108 4.23297 933.867 5.17647 932.74 5.92447L924.69 11.3305C923.931 11.849 922.482 12.138 921.01 12.138Z" fill="white"/>
<path d="M1039.02 387.863C1036.95 387.863 1035.14 387.294 1034.86 386.52L1030.54 374.722C1030.21 373.872 1031.85 373.09 1034.15 372.971C1036.45 372.844 1038.56 373.447 1038.89 374.306L1043.23 386.104C1043.55 386.954 1041.92 387.736 1039.62 387.855C1039.44 387.863 1039.23 387.872 1039.05 387.872L1039.02 387.863Z" fill="white"/>
<path d="M865.765 338.376C863.879 338.376 862.177 337.909 861.694 337.203L857.14 330.624C856.565 329.791 857.922 328.95 860.176 328.737C862.43 328.525 864.707 329.026 865.282 329.859L869.836 336.438C870.411 337.271 869.054 338.113 866.8 338.325C866.455 338.359 866.11 338.376 865.765 338.376Z" fill="white"/>
<path d="M321.331 361.352C320.48 361.352 319.606 361.258 318.847 361.054C316.961 360.553 316.57 359.575 317.927 358.887L355.555 339.83C356.912 339.133 359.557 338.98 361.42 339.49C363.306 339.991 363.697 340.969 362.34 341.657L324.712 360.714C323.884 361.131 322.619 361.352 321.308 361.352H321.331Z" fill="white"/>
<path d="M1003 20.6889C1002.77 20.6889 1002.52 20.6889 1002.29 20.6634C999.991 20.5189 998.473 19.7114 998.864 18.8699L1004.55 6.71491C1004.94 5.87341 1007.1 5.29541 1009.4 5.44841C1011.7 5.59291 1013.22 6.40041 1012.83 7.24191L1007.14 19.3969C1006.8 20.1534 1005.01 20.6889 1003 20.6889Z" fill="white"/>
<path d="M1043.94 56.5335C1041.94 56.5335 1040.17 56.0065 1039.8 55.2585L1036.31 48.127C1035.89 47.2855 1037.41 46.478 1039.69 46.325C1041.97 46.172 1044.15 46.733 1044.57 47.5745L1048.06 54.706C1048.48 55.5475 1046.96 56.355 1044.68 56.508C1044.43 56.525 1044.17 56.5335 1043.92 56.5335H1043.94Z" fill="white"/>
<path d="M318.478 404.022C316.431 404.022 314.66 403.478 314.338 402.704L305.621 382.024C305.253 381.174 306.84 380.383 309.14 380.247C311.417 380.12 313.579 380.698 313.947 381.548L322.664 402.228C323.032 403.078 321.445 403.869 319.145 404.005C318.915 404.013 318.708 404.022 318.501 404.022H318.478Z" fill="white"/>
<path d="M21.9179 321.138C21.2279 321.138 20.5379 321.079 19.8939 320.943C17.8699 320.526 17.1109 319.583 18.2379 318.835L25.6209 313.896C26.7479 313.148 29.3009 312.868 31.3249 313.284C33.3489 313.701 34.1079 314.644 32.9809 315.392L25.5979 320.331C24.8389 320.841 23.3899 321.138 21.9179 321.138Z" fill="white"/>
<path d="M1107.68 302.668C1105.65 302.668 1103.86 302.124 1103.54 301.367L1097.72 288.209C1097.35 287.359 1098.89 286.56 1101.19 286.424C1103.49 286.288 1105.65 286.858 1106.02 287.708L1111.84 300.866C1112.21 301.716 1110.67 302.515 1108.37 302.651C1108.14 302.668 1107.91 302.668 1107.68 302.668Z" fill="white"/>
<path d="M689.722 157.097C688.388 157.097 687.077 156.867 686.272 156.434C684.938 155.728 685.421 154.759 687.307 154.266L697.864 151.546C699.773 151.053 702.395 151.232 703.729 151.929C705.063 152.634 704.58 153.603 702.694 154.096L692.137 156.816C691.401 157.003 690.573 157.097 689.745 157.097H689.722Z" fill="white"/>
<path d="M602.897 42.1428C601.425 42.1428 599.999 41.8538 599.217 41.3523L592.731 37.0853C591.604 36.3373 592.317 35.3938 594.341 34.9688C596.365 34.5523 598.941 34.8158 600.068 35.5638L606.554 39.8308C607.681 40.5788 606.968 41.5223 604.944 41.9473C604.3 42.0833 603.587 42.1428 602.897 42.1428Z" fill="white"/>
<path d="M392.883 166.03C392.124 166.03 391.365 165.954 390.675 165.801C388.697 165.35 388.099 164.39 389.318 163.659L407.511 152.787C408.73 152.056 411.329 151.835 413.307 152.286C415.285 152.736 415.883 153.697 414.664 154.428L396.471 165.299C395.666 165.775 394.309 166.039 392.883 166.039V166.03Z" fill="white"/>
<path d="M940.767 390.856C938.835 390.856 937.087 390.363 936.673 389.632C936.167 388.79 937.616 387.966 939.87 387.779L956.844 386.402C959.098 386.215 961.352 386.75 961.858 387.583C962.364 388.425 960.915 389.249 958.661 389.436L941.687 390.813C941.388 390.839 941.089 390.847 940.79 390.847L940.767 390.856Z" fill="white"/>
<path d="M466.392 217.651C465.61 217.651 464.828 217.575 464.138 217.405L448.59 213.75C446.635 213.291 446.06 212.33 447.302 211.608C448.544 210.885 451.143 210.673 453.098 211.132L468.646 214.787C470.601 215.246 471.176 216.206 469.934 216.929C469.129 217.396 467.772 217.651 466.392 217.651Z" fill="white"/>
<path d="M552.964 319.133C551.124 319.133 549.422 318.682 548.916 317.985C548.295 317.161 549.629 316.302 551.86 316.073L592.179 311.984C594.41 311.755 596.733 312.248 597.354 313.072C597.975 313.897 596.641 314.755 594.41 314.985L554.091 319.073C553.723 319.107 553.332 319.133 552.964 319.133Z" fill="white"/>
<path d="M32.7048 176.112C32.2908 176.112 31.8768 176.086 31.4628 176.044L19.2958 174.667C17.0648 174.42 15.8228 173.545 16.5128 172.729C17.2028 171.904 19.5488 171.445 21.7568 171.7L33.9238 173.077C36.1548 173.324 37.3968 174.199 36.7068 175.015C36.1548 175.687 34.4758 176.112 32.6818 176.112H32.7048Z" fill="white"/>
<path d="M550.228 251.294C548.572 251.294 547.008 250.929 546.341 250.334L531.644 237.184C530.747 236.394 531.782 235.484 533.921 235.153C536.083 234.821 538.521 235.204 539.418 235.994L554.115 249.144C555.012 249.934 553.977 250.844 551.838 251.175C551.309 251.252 550.757 251.294 550.228 251.294Z" fill="white"/>
<path d="M961.744 166.294C960.295 166.294 958.892 166.014 958.11 165.521C956.937 164.781 957.627 163.829 959.628 163.396L969.288 161.322C971.289 160.888 973.865 161.143 975.038 161.883C976.211 162.622 975.521 163.574 973.52 164.008L963.86 166.082C963.193 166.226 962.48 166.294 961.744 166.294Z" fill="white"/>
<path d="M856.933 42.2964C855.507 42.2964 854.127 42.0329 853.322 41.5484L839.453 33.0824C838.257 32.3514 838.878 31.3909 840.879 30.9489C842.857 30.5069 845.456 30.7364 846.652 31.4759L860.521 39.9419C861.717 40.6729 861.096 41.6334 859.095 42.0754C858.405 42.2284 857.669 42.2964 856.91 42.2964H856.933Z" fill="white"/>
<path d="M16.2815 239.938C16.1205 239.938 15.9825 239.938 15.8215 239.93C13.5215 239.836 11.8425 239.071 12.0955 238.221L13.3835 233.759C13.6365 232.909 15.7065 232.28 18.0065 232.382C20.3065 232.475 21.9855 233.24 21.7325 234.09L20.4445 238.553C20.2145 239.352 18.3975 239.938 16.2585 239.938H16.2815Z" fill="white"/>
<path d="M1108.97 357.306C1106.9 357.306 1105.08 356.736 1104.8 355.954C1104.5 355.104 1106.11 354.322 1108.41 354.212L1141.79 352.588C1144.06 352.478 1146.2 353.073 1146.5 353.923C1146.8 354.773 1145.19 355.555 1142.89 355.665L1109.52 357.289C1109.33 357.297 1109.15 357.306 1108.97 357.306Z" fill="white"/>
<path d="M300.492 215.951C299.71 215.951 298.905 215.866 298.192 215.696L263.048 207.247C261.093 206.78 260.541 205.819 261.806 205.097C263.071 204.374 265.67 204.17 267.625 204.638L302.769 213.087C304.724 213.554 305.276 214.515 304.011 215.237C303.206 215.696 301.849 215.943 300.469 215.943L300.492 215.951Z" fill="white"/>
<path d="M129.694 118.924C129.188 118.924 128.659 118.89 128.13 118.813L87.4205 112.812C85.2585 112.498 84.2005 111.588 85.0745 110.789C85.9255 109.99 88.3865 109.599 90.5485 109.922L131.258 115.923C133.42 116.238 134.478 117.147 133.604 117.946C132.96 118.558 131.373 118.924 129.694 118.924Z" fill="white"/>
<path d="M25.5968 145.274C25.3898 145.274 25.1828 145.274 24.9758 145.257C22.6758 145.129 21.0888 144.339 21.4338 143.497L23.7338 137.666C24.0788 136.816 26.1948 136.221 28.4948 136.357C30.7948 136.485 32.3818 137.275 32.0368 138.117L29.7368 143.948C29.4378 144.721 27.6438 145.274 25.5738 145.274H25.5968Z" fill="white"/>
<path d="M232.229 412.981C231.861 412.981 231.493 412.964 231.102 412.921L207.596 410.541C205.365 410.312 204.031 409.462 204.652 408.629C205.273 407.804 207.573 407.311 209.827 407.541L233.333 409.921C235.564 410.15 236.898 411 236.277 411.833C235.771 412.522 234.069 412.981 232.229 412.981Z" fill="white"/>
<path d="M1119.32 418.311C1117.82 418.311 1116.37 418.013 1115.61 417.495L1109.36 413.194C1108.25 412.437 1109.04 411.494 1111.06 411.086C1113.11 410.678 1115.66 410.967 1116.76 411.715L1123.02 416.016C1124.12 416.772 1123.34 417.716 1121.32 418.124C1120.67 418.251 1120.01 418.311 1119.34 418.311H1119.32Z" fill="white"/>
<path d="M748.739 232.909C747.727 232.909 746.692 232.773 745.887 232.501L714.308 221.774C712.606 221.196 712.491 220.21 714.055 219.581C715.619 218.952 718.287 218.909 719.989 219.487L751.568 230.214C753.27 230.792 753.385 231.778 751.821 232.407C750.993 232.739 749.866 232.909 748.716 232.909H748.739Z" fill="white"/>
<path d="M302.702 321.377C302.495 321.377 302.288 321.377 302.058 321.36C299.758 321.232 298.171 320.442 298.516 319.592L301.713 311.789C302.058 310.939 304.197 310.352 306.497 310.488C308.797 310.616 310.384 311.406 310.039 312.256L306.842 320.059C306.52 320.833 304.726 321.385 302.679 321.385L302.702 321.377Z" fill="white"/>
<path d="M910.912 292.494C908.888 292.494 907.094 291.95 906.772 291.185C906.404 290.335 907.968 289.544 910.268 289.408L921.722 288.737C924.022 288.609 926.161 289.179 926.529 290.029C926.897 290.879 925.333 291.669 923.033 291.805L911.579 292.477C911.349 292.494 911.142 292.494 910.912 292.494Z" fill="white"/>
<path d="M85.9499 251.303C85.0069 251.303 84.0639 251.184 83.2819 250.946C81.4879 250.402 81.2349 249.424 82.7069 248.761L91.7689 244.681C93.2409 244.018 95.8859 243.925 97.6799 244.469C99.4739 245.013 99.7269 245.99 98.2549 246.653L89.1929 250.733C88.3649 251.107 87.1459 251.303 85.9499 251.303Z" fill="white"/>
<path d="M1123.02 108.197C1122.88 108.197 1122.72 108.197 1122.58 108.197L1108.97 107.661C1106.67 107.568 1104.99 106.803 1105.22 105.953C1105.47 105.103 1107.49 104.482 1109.84 104.567L1123.46 105.103C1125.76 105.196 1127.43 105.961 1127.2 106.811C1126.97 107.61 1125.16 108.205 1123.02 108.205V108.197Z" fill="white"/>
<path d="M762.656 12.5975C761.115 12.5975 759.62 12.283 758.884 11.7305L750.673 5.61046C749.638 4.84546 750.489 3.91046 752.582 3.52796C754.675 3.14546 757.182 3.45996 758.217 4.23346L766.428 10.3535C767.463 11.1185 766.612 12.0535 764.519 12.436C763.921 12.5465 763.277 12.5975 762.656 12.5975Z" fill="white"/>
<path d="M162.193 85.1445C161.779 85.1445 161.365 85.119 160.974 85.0765L114.353 79.815C112.122 79.56 110.88 78.693 111.547 77.877C112.237 77.0525 114.583 76.5935 116.791 76.84L163.412 82.1015C165.643 82.3565 166.885 83.2235 166.218 84.0395C165.666 84.711 163.987 85.1445 162.193 85.1445Z" fill="white"/>
<path d="M1107.82 154.411C1107.38 154.411 1106.92 154.386 1106.48 154.326C1104.27 154.054 1103.1 153.17 1103.84 152.354L1113.43 141.78C1114.16 140.964 1116.56 140.531 1118.76 140.803C1120.97 141.075 1122.14 141.959 1121.41 142.775L1111.82 153.349C1111.22 154.003 1109.59 154.411 1107.84 154.411H1107.82Z" fill="white"/>
<path d="M1053.14 423.495C1052.36 423.495 1051.58 423.419 1050.89 423.249C1048.94 422.79 1048.36 421.829 1049.6 421.107L1063.49 413.04C1064.74 412.318 1067.34 412.097 1069.29 412.564C1071.25 413.023 1071.82 413.984 1070.58 414.706L1056.69 422.773C1055.88 423.24 1054.52 423.495 1053.14 423.495Z" fill="white"/>
<path d="M612.419 348.764C611.246 348.764 610.05 348.577 609.222 348.22L592.409 340.986C590.891 340.332 591.098 339.354 592.846 338.793C594.617 338.232 597.262 338.309 598.78 338.955L615.593 346.188C617.111 346.843 616.904 347.82 615.156 348.381C614.351 348.636 613.385 348.755 612.419 348.755V348.764Z" fill="white"/>
<path d="M37.7188 205.836C35.6258 205.836 33.8088 205.258 33.5558 204.468C33.2798 203.618 34.9128 202.844 37.2128 202.734L89.7908 200.371C92.0678 200.269 94.1838 200.872 94.4828 201.722C94.7588 202.572 93.1258 203.346 90.8258 203.456L38.2478 205.819C38.0868 205.819 37.9028 205.828 37.7418 205.828L37.7188 205.836Z" fill="white"/>
<path d="M819.902 130.857C817.924 130.857 816.153 130.339 815.762 129.591L809.552 117.257C809.115 116.416 810.633 115.6 812.91 115.447C815.187 115.285 817.395 115.846 817.809 116.688L824.019 129.021C824.456 129.863 822.938 130.679 820.661 130.832C820.408 130.849 820.132 130.857 819.879 130.857H819.902Z" fill="white"/>
<path d="M383.064 285.668C382.075 285.668 381.086 285.54 380.304 285.285L350.335 275.587C348.587 275.017 348.403 274.04 349.944 273.394C351.485 272.748 354.13 272.68 355.878 273.249L385.847 282.948C387.595 283.517 387.779 284.495 386.238 285.141C385.41 285.489 384.237 285.668 383.064 285.668Z" fill="white"/>
<path d="M858.427 377.901C857.852 377.901 857.277 377.859 856.702 377.765C854.586 377.417 853.643 376.49 854.586 375.708L869.053 363.8C869.996 363.018 872.48 362.661 874.619 363.018C876.735 363.366 877.678 364.293 876.735 365.075L862.268 376.983C861.578 377.561 860.037 377.901 858.427 377.901Z" fill="white"/>
<path d="M674.381 86.4788C672.564 86.4788 670.885 86.0368 670.333 85.3568L654.279 64.8378C653.635 64.0133 654.923 63.1548 657.154 62.9168C659.385 62.6788 661.708 63.1548 662.352 63.9793L678.406 84.4983C679.05 85.3228 677.762 86.1813 675.531 86.4193C675.14 86.4618 674.749 86.4788 674.358 86.4788H674.381Z" fill="white"/>
<path d="M276.434 254.617C275.146 254.617 273.881 254.405 273.053 253.997L247.96 241.604C246.58 240.915 246.948 239.946 248.811 239.428C250.674 238.909 253.319 239.054 254.699 239.742L279.792 252.135C281.172 252.824 280.804 253.793 278.941 254.311C278.182 254.524 277.308 254.617 276.434 254.617Z" fill="white"/>
<path d="M20.3996 111.622C18.1456 111.622 16.2826 110.968 16.1906 110.135L14.5346 94.9624C14.4426 94.1039 16.2366 93.3814 18.5596 93.3474C20.8136 93.3219 22.8376 93.9764 22.9296 94.8349L24.6086 110.007C24.7006 110.866 22.9066 111.588 20.5836 111.622C20.5146 111.622 20.4686 111.622 20.4226 111.622H20.3996Z" fill="white"/>
<path d="M764.174 264.214C763.162 264.214 762.149 264.078 761.344 263.806C759.619 263.228 759.504 262.242 761.068 261.613L770.613 257.746C772.177 257.108 774.846 257.066 776.548 257.644C778.273 258.222 778.388 259.208 776.824 259.837L767.278 263.704C766.45 264.044 765.301 264.214 764.174 264.214Z" fill="white"/>
<path d="M704.074 196.146C703.614 196.146 703.154 196.12 702.694 196.061C700.509 195.78 699.336 194.888 700.118 194.08L713.366 180.098C714.125 179.29 716.517 178.865 718.725 179.146C720.91 179.426 722.083 180.319 721.301 181.126L708.053 195.109C707.455 195.746 705.822 196.154 704.074 196.154V196.146Z" fill="white"/>
<path d="M962.685 260.771C962.156 260.771 961.627 260.737 961.098 260.661L911.625 253.24C909.463 252.917 908.428 252.008 909.302 251.217C910.176 250.418 912.614 250.036 914.776 250.359L964.249 257.779C966.411 258.102 967.446 259.012 966.572 259.802C965.905 260.406 964.341 260.771 962.662 260.771H962.685Z" fill="white"/>
<path d="M882.715 179.971C880.645 179.971 878.851 179.401 878.552 178.628L874.734 168.266C874.412 167.416 876.022 166.634 878.345 166.515C880.622 166.396 882.761 166.991 883.083 167.85L886.901 178.211C887.223 179.061 885.613 179.843 883.29 179.962C883.106 179.971 882.899 179.979 882.715 179.979V179.971Z" fill="white"/>
<path d="M236.76 129.956C236.185 129.956 235.61 129.914 235.035 129.82L191.933 122.689C189.817 122.34 188.874 121.422 189.817 120.632C190.76 119.85 193.267 119.501 195.383 119.85L238.485 126.981C240.601 127.33 241.544 128.248 240.601 129.038C239.911 129.616 238.37 129.956 236.76 129.956Z" fill="white"/>
<path d="M490.221 305.371C489.945 305.371 489.669 305.362 489.393 305.337C487.116 305.167 485.644 304.351 486.104 303.509L496.247 284.954C496.707 284.112 498.915 283.568 501.192 283.738C503.469 283.908 504.941 284.724 504.481 285.566L494.338 304.121C493.924 304.861 492.176 305.371 490.221 305.371Z" fill="white"/>
<path d="M508.39 52.6324C506.688 52.6324 505.078 52.2414 504.434 51.6124C503.629 50.8049 504.756 49.9124 506.941 49.6149L525.755 47.0649C527.94 46.7674 530.355 47.1839 531.16 47.9914C531.965 48.7989 530.838 49.6914 528.653 49.9889L509.839 52.5389C509.356 52.6069 508.873 52.6324 508.39 52.6324Z" fill="white"/>
<path d="M506.941 153.578C504.641 153.578 502.755 152.889 502.732 152.039C502.732 151.181 504.572 150.475 506.895 150.475L553.723 150.331C556.207 150.288 557.955 151.011 557.955 151.869C557.955 152.728 556.115 153.433 553.792 153.433L506.964 153.578H506.918H506.941Z" fill="white"/>
<path d="M1003.72 297.304C1003.33 297.304 1002.94 297.287 1002.54 297.245C1000.31 297.007 999.026 296.14 999.67 295.315L1016.02 274.473C1016.67 273.649 1019.01 273.173 1021.24 273.411C1023.47 273.649 1024.76 274.516 1024.12 275.34L1007.77 296.182C1007.24 296.862 1005.56 297.304 1003.72 297.304Z" fill="white"/>
<path d="M946.38 358.199C944.701 358.199 943.114 357.825 942.47 357.213C941.619 356.414 942.677 355.513 944.839 355.198L972.301 351.203C974.463 350.889 976.901 351.28 977.752 352.079C978.603 352.878 977.545 353.779 975.383 354.093L947.921 358.088C947.415 358.165 946.886 358.199 946.38 358.199Z" fill="white"/>
<path d="M772.453 95.9477C771.096 95.9477 769.785 95.7097 768.957 95.2677L760.723 90.7712C759.412 90.0572 759.918 89.0967 761.85 88.6122C763.782 88.1277 766.381 88.3147 767.692 89.0287L775.926 93.5252C777.237 94.2392 776.731 95.1997 774.799 95.6842C774.086 95.8627 773.258 95.9477 772.453 95.9477Z" fill="white"/>
<path d="M451.673 129.302C450.201 129.302 448.775 129.022 448.016 128.512L424.303 112.965C423.153 112.217 423.889 111.265 425.89 110.849C427.914 110.424 430.467 110.696 431.617 111.435L455.33 126.982C456.48 127.73 455.744 128.682 453.743 129.098C453.099 129.234 452.386 129.302 451.673 129.302Z" fill="white"/>
<path d="M672.793 256.471C671.735 256.471 670.677 256.326 669.872 256.037L643.215 246.509C641.536 245.914 641.513 244.928 643.123 244.307C644.733 243.687 647.401 243.67 649.08 244.273L675.737 253.802C677.416 254.397 677.439 255.383 675.829 256.003C675.001 256.318 673.897 256.479 672.816 256.479L672.793 256.471Z" fill="white"/>
<path d="M783.424 315.24C782.228 315.24 781.032 315.053 780.204 314.679C778.709 314.016 778.962 313.038 780.733 312.486L818.453 300.841C820.224 300.288 822.892 300.382 824.387 301.036C825.882 301.699 825.629 302.677 823.858 303.229L786.138 314.874C785.356 315.121 784.39 315.24 783.447 315.24H783.424Z" fill="white"/>
<path d="M246.949 354.713C246.696 354.713 246.443 354.713 246.167 354.688L228.066 353.43C225.789 353.268 224.271 352.461 224.708 351.619C225.145 350.778 227.353 350.217 229.607 350.378L247.708 351.636C249.985 351.798 251.503 352.605 251.066 353.447C250.675 354.195 248.927 354.713 246.926 354.713H246.949Z" fill="white"/>
<path d="M449.211 391.297C448.544 391.297 447.854 391.238 447.21 391.11L395.506 380.749C393.459 380.341 392.7 379.397 393.804 378.64C394.908 377.884 397.461 377.603 399.508 378.011L451.212 388.373C453.259 388.781 454.018 389.725 452.914 390.481C452.155 391 450.706 391.297 449.211 391.297Z" fill="white"/>
<path d="M729.283 126.863C728.34 126.863 727.374 126.744 726.592 126.506L701.292 118.72C699.498 118.167 699.268 117.19 700.74 116.527C702.235 115.864 704.88 115.779 706.674 116.323L731.974 124.109C733.768 124.661 733.998 125.639 732.526 126.302C731.698 126.667 730.502 126.863 729.283 126.863Z" fill="white"/>
<path d="M230.365 63.3764C228.203 63.3764 226.386 62.7729 226.179 61.9654L220.337 38.5819C220.13 37.7234 221.832 36.9669 224.132 36.8904C226.455 36.8054 228.502 37.4429 228.709 38.2929L234.551 61.6764C234.758 62.5349 233.056 63.2914 230.756 63.3679C230.618 63.3679 230.503 63.3679 230.365 63.3679V63.3764Z" fill="white"/>
<path d="M599.424 378.292C599.01 378.292 598.573 378.267 598.159 378.216L588.016 377.017C585.808 376.754 584.589 375.887 585.279 375.062C585.992 374.246 588.361 373.796 590.569 374.051L600.712 375.241C602.92 375.504 604.139 376.371 603.449 377.196C602.874 377.859 601.218 378.284 599.447 378.284L599.424 378.292Z" fill="white"/>
<path d="M539.439 120.479C538.45 120.479 537.438 120.352 536.633 120.08L527.962 117.207C526.237 116.629 526.099 115.651 527.64 115.014C529.181 114.376 531.849 114.317 533.574 114.895L542.245 117.768C543.97 118.346 544.108 119.323 542.567 119.961C541.739 120.301 540.589 120.479 539.439 120.479Z" fill="white"/>
<path d="M845.363 238.638C844.006 238.638 842.695 238.4 841.867 237.949L826.48 229.517C825.192 228.803 825.698 227.843 827.607 227.358C829.539 226.882 832.138 227.069 833.449 227.775L848.836 236.207C850.124 236.921 849.618 237.881 847.709 238.366C846.996 238.544 846.168 238.629 845.363 238.629V238.638Z" fill="white"/>
<path d="M1110.21 68.6716C1110.21 68.6716 1110.05 68.6716 1109.96 68.6716C1107.63 68.6206 1105.86 67.8896 1106 67.0311L1109.36 45.8661C1109.5 45.0076 1111.52 44.3446 1113.8 44.4041C1116.12 44.4551 1117.89 45.1861 1117.75 46.0446L1114.39 67.2096C1114.26 68.0341 1112.42 68.6716 1110.21 68.6716Z" fill="white"/>
<path d="M679.026 34.4163C677.002 34.4163 675.208 33.8723 674.886 33.1158C674.518 32.2658 676.059 31.4668 678.359 31.3308L714.423 29.1548C716.7 29.0188 718.885 29.5883 719.253 30.4383C719.621 31.2883 718.08 32.0873 715.78 32.2233L679.716 34.3993C679.486 34.4163 679.256 34.4163 679.026 34.4163Z" fill="white"/>
<path d="M788.323 352.368C787.702 352.368 787.081 352.317 786.483 352.206L745.014 344.692C742.921 344.318 742.07 343.383 743.082 342.61C744.094 341.836 746.624 341.522 748.717 341.896L790.186 349.41C792.279 349.784 793.13 350.719 792.118 351.492C791.382 352.045 789.887 352.359 788.346 352.359L788.323 352.368Z" fill="white"/>
<path d="M621.619 183.625C620.446 183.625 619.273 183.447 618.445 183.09L595.514 173.34C593.996 172.694 594.18 171.708 595.928 171.147C597.676 170.586 600.344 170.654 601.862 171.3L624.793 181.05C626.311 181.696 626.127 182.682 624.379 183.243C623.574 183.498 622.608 183.625 621.619 183.625Z" fill="white"/>
<path d="M846.49 274.686C846.145 274.686 845.8 274.669 845.455 274.635C843.201 274.423 841.844 273.581 842.419 272.748L845.8 267.844C846.375 267.011 848.652 266.501 850.906 266.722C853.16 266.934 854.517 267.776 853.942 268.609L850.561 273.513C850.078 274.219 848.376 274.686 846.49 274.686Z" fill="white"/>
<path d="M222.501 325.312C220.569 325.312 218.821 324.819 218.407 324.088L205.642 302.702C205.136 301.86 206.585 301.036 208.839 300.849C211.093 300.662 213.347 301.197 213.853 302.03L226.618 323.416C227.124 324.258 225.675 325.082 223.421 325.269C223.122 325.295 222.8 325.303 222.501 325.303V325.312Z" fill="white"/>
<path d="M531.873 409.87C530.769 409.87 529.642 409.709 528.814 409.386C527.227 408.765 527.296 407.779 528.975 407.184L553.539 398.599C555.218 398.013 557.886 398.038 559.496 398.659C561.083 399.279 561.014 400.265 559.335 400.86L534.771 409.445C533.966 409.726 532.908 409.87 531.873 409.87Z" fill="white"/>
<path d="M201.891 190.774C200.764 190.774 199.66 190.612 198.832 190.281L166.701 177.607C165.114 176.978 165.206 176.001 166.885 175.406C168.587 174.819 171.255 174.853 172.842 175.474L204.973 188.147C206.56 188.776 206.468 189.754 204.789 190.349C203.984 190.629 202.949 190.765 201.914 190.765L201.891 190.774Z" fill="white"/>
<path d="M956.43 321.53C956.315 321.53 956.2 321.53 956.085 321.53L924.966 320.561C922.643 320.493 920.941 319.736 921.125 318.878C921.309 318.019 923.333 317.382 925.679 317.458L956.798 318.427C959.121 318.495 960.823 319.252 960.639 320.11C960.455 320.918 958.615 321.538 956.453 321.538L956.43 321.53Z" fill="white"/>
<path d="M981.892 197.88C980.052 197.88 978.35 197.429 977.844 196.732C977.223 195.899 978.557 195.049 980.788 194.82L1011.33 191.743C1013.59 191.513 1015.89 192.006 1016.51 192.831C1017.13 193.664 1015.79 194.514 1013.56 194.743L983.019 197.82C982.651 197.854 982.283 197.88 981.915 197.88H981.892Z" fill="white"/>
<path d="M981.248 412.275C979.753 412.275 978.281 411.978 977.522 411.451C976.441 410.694 977.2 409.751 979.27 409.351L993.99 406.453C996.037 406.045 998.59 406.342 999.671 407.099C1000.75 407.855 999.993 408.799 997.923 409.198L983.203 412.097C982.582 412.224 981.892 412.275 981.225 412.275H981.248Z" fill="white"/>
<path d="M1052.02 134.929C1051.42 134.929 1050.8 134.878 1050.22 134.776L991.023 124.355C988.93 123.989 988.033 123.054 989.022 122.281C990.011 121.507 992.541 121.176 994.634 121.541L1053.84 131.962C1055.93 132.328 1056.83 133.263 1055.84 134.036C1055.12 134.597 1053.61 134.92 1052.04 134.92L1052.02 134.929Z" fill="white"/>
<path d="M768.475 390.286C767.578 390.286 766.681 390.184 765.922 389.971C764.082 389.453 763.714 388.475 765.117 387.795L780.688 380.239C782.091 379.559 784.736 379.423 786.576 379.941C788.416 380.46 788.784 381.437 787.381 382.117L771.81 389.674C770.982 390.073 769.74 390.286 768.452 390.286H768.475Z" fill="white"/>
<path d="M967.125 92.0381C966.987 92.0381 966.872 92.0381 966.734 92.0381C964.411 91.9616 962.709 91.2051 962.939 90.3466L965.561 79.8321C965.768 78.9736 967.838 78.3446 970.138 78.4296C972.461 78.5061 974.163 79.2626 973.933 80.1211L971.311 90.6356C971.104 91.4431 969.287 92.0466 967.125 92.0466V92.0381Z" fill="white"/>
<path d="M879.449 88.8254C878.253 88.8254 877.057 88.6384 876.229 88.2729L842.833 73.5764C841.338 72.9219 841.568 71.9359 843.339 71.3834C845.11 70.8309 847.778 70.9159 849.273 71.5704L882.669 86.2669C884.164 86.9214 883.934 87.9074 882.163 88.4599C881.381 88.7064 880.415 88.8254 879.449 88.8254Z" fill="white"/>
<path d="M100.001 158.321C98.5294 158.321 97.0804 158.032 96.3214 157.522C95.1944 156.774 95.9304 155.822 97.9544 155.406L132.431 148.334C134.455 147.917 137.031 148.189 138.158 148.937C139.285 149.685 138.549 150.637 136.525 151.054L102.048 158.126C101.404 158.262 100.691 158.321 100.001 158.321Z" fill="white"/>
<path d="M370.919 13.3624C368.895 13.3624 367.124 12.8269 366.779 12.0619L363.007 3.67239C362.616 2.82239 364.18 2.02339 366.457 1.88739C368.734 1.74289 370.919 2.32089 371.287 3.16239L375.059 11.5519C375.45 12.4019 373.886 13.2009 371.609 13.3369C371.379 13.3539 371.149 13.3539 370.919 13.3539V13.3624Z" fill="white"/>
<path d="M187.632 271.439C186.321 271.439 185.033 271.21 184.205 270.793L170.29 263.611C168.933 262.914 169.37 261.945 171.256 261.443C173.142 260.942 175.764 261.103 177.121 261.8L191.036 268.983C192.393 269.68 191.956 270.649 190.07 271.15C189.334 271.346 188.483 271.439 187.632 271.439Z" fill="white"/>
<path d="M1134.22 391.178C1132.17 391.178 1130.38 390.626 1130.08 389.861L1127.16 382.823C1126.81 381.973 1128.38 381.182 1130.68 381.055C1132.95 380.927 1135.12 381.505 1135.46 382.355L1138.38 389.393C1138.73 390.243 1137.16 391.034 1134.86 391.161C1134.66 391.17 1134.43 391.178 1134.22 391.178Z" fill="white"/>
<path d="M516.164 89.4285C514.485 89.4285 512.921 89.0545 512.254 88.451C511.403 87.652 512.438 86.751 514.6 86.428L570.49 78.2085C572.652 77.894 575.09 78.2765 575.964 79.0755C576.815 79.8745 575.78 80.7755 573.618 81.0985L517.728 89.318C517.222 89.3945 516.693 89.4285 516.164 89.4285Z" fill="white"/>
<path d="M701.107 370.642C700.532 370.642 699.957 370.6 699.405 370.506L669.206 365.576C667.09 365.228 666.124 364.31 667.067 363.528C668.01 362.746 670.494 362.389 672.61 362.737L702.809 367.667C704.925 368.016 705.891 368.934 704.971 369.716C704.281 370.294 702.74 370.642 701.13 370.642H701.107Z" fill="white"/>
<path d="M1038.89 338.028C1038.24 338.028 1037.6 337.977 1036.98 337.858C1034.91 337.467 1034.08 336.532 1035.14 335.767L1063.68 314.985C1064.74 314.22 1067.27 313.914 1069.34 314.305C1071.41 314.696 1072.24 315.631 1071.18 316.396L1042.63 337.178C1041.9 337.722 1040.4 338.028 1038.89 338.028Z" fill="white"/>
<path d="M389.987 414.435C387.779 414.435 385.916 413.797 385.801 412.973C385.663 412.114 387.434 411.383 389.757 411.332L440.38 410.219C442.703 410.159 444.704 410.822 444.819 411.681C444.957 412.539 443.186 413.27 440.863 413.321L390.239 414.435C390.239 414.435 390.079 414.435 389.987 414.435Z" fill="white"/>
<path d="M308.268 73.6439C306.474 73.6439 304.795 73.2104 304.243 72.5389C303.576 71.7144 304.818 70.8474 307.049 70.6009L355.027 65.2374C357.258 64.9909 359.604 65.4499 360.271 66.2744C360.938 67.0989 359.696 67.9659 357.465 68.2124L309.487 73.5759C309.073 73.6184 308.682 73.6439 308.268 73.6439Z" fill="white"/>
<path d="M27.8961 33.9405C25.8951 33.9405 24.1241 33.4135 23.7561 32.657L12.3251 8.88253C11.9111 8.04103 13.4521 7.23353 15.7291 7.08053C18.0291 6.92753 20.1911 7.49703 20.6051 8.33853L32.0361 32.113C32.4501 32.9545 30.9091 33.762 28.6321 33.915C28.3791 33.932 28.1261 33.9405 27.8961 33.9405Z" fill="white"/>
<path d="M447.347 264.987C445.323 264.987 443.529 264.443 443.207 263.678L434.03 242.522C433.662 241.672 435.226 240.873 437.526 240.745C439.803 240.609 441.988 241.187 442.333 242.037L451.51 263.194C451.878 264.044 450.314 264.843 448.014 264.979C447.784 264.996 447.554 264.996 447.347 264.996V264.987Z" fill="white"/>
<path d="M812.427 199.172C811.99 199.172 811.553 199.146 811.116 199.095L795.2 197.174C792.992 196.911 791.796 196.027 792.509 195.211C793.222 194.395 795.591 193.944 797.822 194.216L813.738 196.137C815.946 196.401 817.142 197.285 816.429 198.101C815.854 198.755 814.198 199.172 812.427 199.172Z" fill="white"/>
<path d="M341.273 106.182C339.709 106.182 338.214 105.859 337.478 105.307C336.466 104.533 337.34 103.607 339.433 103.233L358.707 99.7816C360.8 99.4076 363.307 99.7306 364.319 100.504C365.331 101.278 364.457 102.204 362.364 102.578L343.09 106.029C342.492 106.131 341.871 106.182 341.25 106.182H341.273Z" fill="white"/>
<path d="M415.287 45.9341C414.298 45.9341 413.309 45.8066 412.504 45.5516L404.224 42.8656C402.476 42.2961 402.315 41.3186 403.833 40.6726C405.374 40.0266 408.019 39.9671 409.767 40.5281L418.047 43.2141C419.795 43.7836 419.956 44.7611 418.438 45.4071C417.61 45.7556 416.437 45.9341 415.264 45.9341H415.287Z" fill="white"/>
<path d="M410.824 314.151C410.571 314.151 410.318 314.151 410.065 314.126L388.353 312.655C386.076 312.502 384.558 311.686 384.972 310.845C385.386 310.003 387.571 309.442 389.871 309.595L411.583 311.066C413.86 311.219 415.378 312.035 414.964 312.876C414.596 313.624 412.825 314.151 410.824 314.151Z" fill="white"/>
<path d="M884.853 410.236C882.645 410.236 880.782 409.598 880.667 408.774L878.275 393.967C878.137 393.108 879.908 392.377 882.231 392.326C884.554 392.258 886.532 392.93 886.67 393.788L889.062 408.595C889.2 409.454 887.429 410.185 885.106 410.236C885.014 410.236 884.945 410.236 884.853 410.236Z" fill="white"/>
<path d="M41.376 373.651C39.605 373.651 37.972 373.243 37.397 372.589L19.94 353.319C19.204 352.503 20.4 351.628 22.585 351.356C24.77 351.084 27.162 351.526 27.898 352.333L45.355 371.603C46.091 372.419 44.895 373.294 42.71 373.566C42.273 373.617 41.813 373.651 41.376 373.651Z" fill="white"/>
<path d="M134.273 302.787C133.238 302.787 132.18 302.642 131.375 302.362L84.6388 285.957C82.9598 285.362 82.8908 284.384 84.4778 283.755C86.0878 283.135 88.7328 283.109 90.4348 283.696L137.171 300.101C138.85 300.696 138.919 301.673 137.332 302.302C136.504 302.625 135.4 302.787 134.273 302.787Z" fill="white"/>
<path d="M650.001 7.77738C648.575 7.77738 647.172 7.50538 646.39 7.02088C645.194 6.28138 645.861 5.32938 647.862 4.88738L662.697 1.63188C664.698 1.18988 667.274 1.43638 668.47 2.17588C669.666 2.91538 668.999 3.86738 666.998 4.30938L652.163 7.56488C651.496 7.70938 650.76 7.78588 650.024 7.78588L650.001 7.77738Z" fill="white"/>
<path d="M111.824 47.7361C109.823 47.7361 108.052 47.2091 107.684 46.4526C107.27 45.6111 108.811 44.8036 111.088 44.6506L143.909 42.4831C146.232 42.3301 148.371 42.8911 148.785 43.7411C149.199 44.5826 147.681 45.3901 145.381 45.5431L112.56 47.7106C112.307 47.7276 112.054 47.7361 111.824 47.7361Z" fill="white"/>
<path d="M703.408 412.701C701.338 412.701 699.521 412.131 699.245 411.358L691.977 391.621C691.655 390.771 693.265 389.989 695.588 389.87C697.911 389.751 700.004 390.346 700.326 391.204L707.594 410.941C707.916 411.791 706.306 412.573 703.983 412.692C703.799 412.701 703.592 412.709 703.408 412.709V412.701Z" fill="white"/>
<path d="M96.804 12.2486C95.355 12.2486 93.9521 11.9766 93.1701 11.4836L83.5101 5.40614C82.3371 4.66664 83.0041 3.71464 85.0051 3.28114C87.0061 2.84764 89.5821 3.09414 90.7551 3.83364L100.415 9.91114C101.588 10.6506 100.921 11.6026 98.9201 12.0361C98.2531 12.1806 97.517 12.2486 96.804 12.2486Z" fill="white"/>
<path d="M142.114 394C140.159 394 138.388 393.49 137.997 392.751L128.084 374.646C127.624 373.804 129.096 372.988 131.373 372.818C133.673 372.648 135.858 373.192 136.318 374.034L146.231 392.139C146.691 392.98 145.219 393.796 142.942 393.966C142.666 393.983 142.39 394 142.114 394Z" fill="white"/>
<path d="M431.961 349.971C431.34 349.971 430.696 349.92 430.098 349.809C428.028 349.427 427.177 348.492 428.212 347.727L437.343 340.961C438.378 340.196 440.908 339.881 442.978 340.264C445.048 340.646 445.899 341.581 444.864 342.346L435.733 349.112C434.997 349.656 433.502 349.971 431.961 349.971Z" fill="white"/>
<path d="M636.868 143.565C635.695 143.565 634.545 143.386 633.717 143.038L616.329 135.736C614.788 135.09 614.972 134.113 616.72 133.543C618.468 132.974 621.113 133.042 622.654 133.688L640.042 140.989C641.583 141.635 641.399 142.613 639.651 143.182C638.846 143.446 637.857 143.573 636.868 143.573V143.565Z" fill="white"/>
<path d="M621.527 110.117C620.101 110.117 618.721 109.854 617.939 109.369L610.694 104.992C609.475 104.261 610.096 103.3 612.097 102.858C614.075 102.408 616.674 102.637 617.87 103.377L625.115 107.754C626.334 108.485 625.713 109.446 623.712 109.888C623.022 110.041 622.263 110.117 621.527 110.117Z" fill="white"/>
<path d="M959.235 49.8949C959.051 49.8949 958.867 49.8949 958.683 49.8779L923.999 48.1779C921.699 48.0674 920.066 47.2854 920.388 46.4354C920.687 45.5854 922.826 44.9819 925.103 45.1009L959.787 46.8009C962.087 46.9114 963.72 47.6934 963.398 48.5434C963.122 49.3254 961.305 49.8949 959.235 49.8949Z" fill="white"/>
<path d="M320.297 37.9273C318.687 37.9273 317.146 37.5873 316.456 37.0008L290.512 15.4618C289.569 14.6798 290.512 13.7618 292.651 13.4133C294.767 13.0648 297.251 13.4133 298.194 14.2038L324.138 35.7428C325.081 36.5248 324.138 37.4428 321.999 37.7913C321.447 37.8848 320.872 37.9273 320.297 37.9273Z" fill="white"/>
<path d="M22.0313 283.382C19.8693 283.382 18.0293 282.769 17.8453 281.953L15.2693 270.096C15.0853 269.237 16.8103 268.489 19.1333 268.421C21.4563 268.336 23.4803 268.991 23.6643 269.849L26.2403 281.707C26.4243 282.565 24.6993 283.314 22.3763 283.382C22.2613 283.382 22.1463 283.382 22.0313 283.382Z" fill="white"/>
<path d="M332.417 145.376C330.899 145.376 329.427 145.07 328.691 144.543L311.303 132.243C310.222 131.487 311.027 130.543 313.074 130.144C315.121 129.744 317.674 130.042 318.755 130.798L336.143 143.098C337.224 143.854 336.419 144.798 334.372 145.197C333.751 145.316 333.084 145.376 332.44 145.376H332.417Z" fill="white"/>
<path d="M741.449 62.4328C740.115 62.4328 738.827 62.2033 737.999 61.7698C736.665 61.0643 737.125 60.0953 739.034 59.6023L784.275 47.8893C786.184 47.3963 788.806 47.5663 790.14 48.2718C791.474 48.9773 791.014 49.9463 789.105 50.4393L743.864 62.1523C743.128 62.3393 742.277 62.4328 741.449 62.4328Z" fill="white"/>
<path d="M147.013 344.488C146.231 344.488 145.426 344.403 144.736 344.241L101.657 333.905C99.7024 333.438 99.1504 332.477 100.415 331.755C101.68 331.032 104.279 330.828 106.234 331.296L149.313 341.632C151.268 342.099 151.82 343.06 150.555 343.782C149.75 344.241 148.393 344.488 147.013 344.488Z" fill="white"/>
<path d="M60.2127 411.766C60.0058 411.766 59.7757 411.766 59.5457 411.749C57.2457 411.613 55.6817 410.822 56.0497 409.972L63.6397 392.097C64.0077 391.247 66.1697 390.677 68.4467 390.805C70.7467 390.941 72.3108 391.731 71.9427 392.581L64.3527 410.457C64.0307 411.222 62.2368 411.766 60.2127 411.766Z" fill="white"/>
<path d="M361.605 242.751C359.765 242.751 358.063 242.301 357.557 241.612L354.291 237.261C353.67 236.436 354.981 235.578 357.212 235.348C359.443 235.119 361.766 235.603 362.387 236.427L365.653 240.779C366.274 241.604 364.963 242.462 362.732 242.692C362.364 242.734 361.973 242.751 361.605 242.751Z" fill="white"/>
<path d="M229.355 157.947C228.366 157.947 227.377 157.819 226.595 157.564C224.847 156.995 224.663 156.017 226.204 155.371L233.403 152.328C234.921 151.682 237.589 151.614 239.337 152.184C241.085 152.753 241.269 153.731 239.728 154.377L232.529 157.42C231.701 157.768 230.528 157.947 229.355 157.947Z" fill="white"/>
<path d="M427.982 82.3399C427.269 82.3399 426.556 82.2719 425.889 82.1359C423.865 81.7109 423.175 80.7589 424.325 80.0109L440.103 69.8449C441.253 69.0969 443.829 68.8419 445.853 69.2669C447.877 69.6919 448.567 70.6439 447.417 71.3919L431.639 81.5579C430.857 82.0594 429.454 82.3399 427.982 82.3399Z" fill="white"/>
<path d="M607.566 285.549C606.163 285.549 604.806 285.294 604.001 284.827L590.891 277.151C589.649 276.429 590.247 275.468 592.202 275.009C594.18 274.55 596.779 274.771 597.998 275.494L611.108 283.169C612.35 283.892 611.752 284.852 609.797 285.311C609.107 285.473 608.325 285.549 607.566 285.549Z" fill="white"/>
<path d="M1054.64 23.9959C1052.66 23.9959 1050.91 23.4774 1050.52 22.7379C1050.09 21.8964 1051.56 21.0804 1053.83 20.9104L1107.61 17.0259C1109.89 16.8559 1112.09 17.4084 1112.55 18.2499C1112.99 19.0914 1111.52 19.9074 1109.24 20.0774L1055.47 23.9619C1055.19 23.9789 1054.92 23.9874 1054.66 23.9874L1054.64 23.9959Z" fill="white"/>
<path d="M307.369 178.016C307.093 178.016 306.817 178.007 306.541 177.99L292.235 176.945C289.958 176.775 288.463 175.959 288.923 175.117C289.383 174.276 291.591 173.723 293.868 173.893L308.174 174.939C310.451 175.109 311.923 175.925 311.486 176.766C311.095 177.506 309.324 178.016 307.369 178.016Z" fill="white"/>
<path d="M261.807 102.51C260.381 102.51 258.978 102.238 258.196 101.754L242.488 92.0469C241.292 91.3074 241.936 90.3554 243.937 89.9134C245.938 89.4714 248.514 89.7094 249.71 90.4489L265.419 100.156C266.615 100.895 265.971 101.847 263.97 102.289C263.303 102.442 262.543 102.51 261.807 102.51Z" fill="white"/>
<path d="M36.0383 66.6397C35.6933 66.6397 35.3253 66.6227 34.9803 66.5887L17.3163 64.8972C15.0623 64.6847 13.7053 63.8347 14.3033 63.0017C14.9013 62.1687 17.1783 61.6757 19.4323 61.8882L37.0963 63.5797C39.3503 63.7922 40.7073 64.6422 40.1093 65.4752C39.6263 66.1722 37.9013 66.6397 36.0383 66.6397Z" fill="white"/>
<path d="M1111.68 259.071C1111.52 259.071 1111.36 259.071 1111.2 259.063L1098.22 258.51C1095.92 258.408 1094.27 257.643 1094.52 256.785C1094.8 255.935 1096.89 255.314 1099.19 255.416L1112.16 255.969C1114.46 256.071 1116.12 256.836 1115.87 257.694C1115.61 258.485 1113.8 259.071 1111.7 259.071H1111.68Z" fill="white"/>
<path d="M1103.22 221.85C1102.87 221.85 1102.53 221.833 1102.18 221.799L1082.24 219.938C1079.99 219.725 1078.63 218.884 1079.18 218.051C1079.76 217.218 1082.03 216.716 1084.29 216.92L1104.23 218.782C1106.48 218.994 1107.84 219.836 1107.29 220.669C1106.8 221.374 1105.1 221.842 1103.22 221.842V221.85Z" fill="white"/>
<path d="M681.12 328.746C679.004 328.746 677.164 328.151 676.934 327.352L672.84 312.962C672.587 312.112 674.266 311.346 676.589 311.253C678.889 311.168 680.959 311.78 681.212 312.639L685.306 327.029C685.559 327.879 683.88 328.644 681.557 328.738C681.396 328.738 681.258 328.738 681.12 328.738V328.746Z" fill="white"/>
<path d="M914.8 140.335C912.914 140.335 911.212 139.868 910.729 139.154L895.986 117.343C895.434 116.51 896.791 115.668 899.045 115.456C901.276 115.252 903.576 115.753 904.151 116.586L918.894 138.397C919.446 139.23 918.089 140.072 915.835 140.284C915.49 140.318 915.145 140.327 914.823 140.327L914.8 140.335Z" fill="white"/>
<path d="M799.662 412.514H799.57L781.538 412.378C779.215 412.361 777.375 411.647 777.421 410.788C777.467 409.93 779.376 409.284 781.722 409.267L799.754 409.403C802.077 409.42 803.917 410.134 803.871 410.992C803.825 411.842 801.962 412.514 799.662 412.514Z" fill="white"/>
</g>
<defs>
<filter id="filter0_d_139_478" x="0" y="0" width="1158" height="433" filterUnits="userSpaceOnUse" color-interpolation-filters="sRGB">
<feFlood flood-opacity="0" result="BackgroundImageFix"/>
<feColorMatrix in="SourceAlpha" type="matrix" values="0 0 0 0 0 0 0 0 0 0 0 0 0 0 0 0 0 0 127 0" result="hardAlpha"/>
<feOffset dy="4"/>
<feGaussianBlur stdDeviation="2"/>
<feComposite in2="hardAlpha" operator="out"/>
<feColorMatrix type="matrix" values="0 0 0 0 0 0 0 0 0 0 0 0 0 0 0 0 0 0 0.25 0"/>
<feBlend mode="normal" in2="BackgroundImageFix" result="effect1_dropShadow_139_478"/>
<feBlend mode="normal" in="SourceGraphic" in2="effect1_dropShadow_139_478" result="shape"/>
</filter>
</defs>
</svg>
