<svg width="155" height="55" viewBox="0 0 155 55" fill="none" xmlns="http://www.w3.org/2000/svg">
<g clip-path="url(#clip0_139_17)">
<path d="M41.5929 9.28223H50.7424C50.9695 9.28223 51.1734 9.46639 51.2462 9.74265L60.981 47.0514C61.0946 47.4861 60.8383 47.9318 60.4772 47.9318H52.676C52.4401 47.9318 52.2333 47.7329 52.1664 47.4456L50.7628 41.2796C50.6987 40.9923 50.4891 40.7934 50.2532 40.7934H42.0355C41.7967 40.7934 41.59 40.9923 41.5259 41.2833L40.1602 47.4419C40.0961 47.7292 39.8865 47.9318 39.6506 47.9318H31.8523C31.4912 47.9318 31.2378 47.4861 31.3485 47.0514L41.092 9.74265C41.1648 9.47008 41.3658 9.28223 41.5958 9.28223H41.5929ZM48.0721 32.3069C48.4244 32.3069 48.6778 31.8833 48.5817 31.4524L47.3645 26.0342C47.1461 24.9955 46.8782 23.5774 46.6452 22.2992C46.5171 21.5957 45.7221 21.6104 45.6115 22.3177C45.4076 23.5921 45.1659 24.9991 44.9271 26.0342L43.7099 31.4524C43.6138 31.8797 43.8672 32.3069 44.2195 32.3069H48.0721V32.3069Z" fill="#17A550"/>
<path d="M37.3282 24.1559C36.9496 22.3437 36.4721 20.5278 35.8955 18.723C38.4959 16.7597 41.4021 15.1317 44.5674 13.9457C38.9968 10.2549 32.9544 8.14435 26.8392 7.625C26.5363 13.4373 26.2276 19.2497 25.9219 25.062C29.4541 25.3604 32.9544 26.4286 36.2566 28.2629L37.3282 24.1559V24.1559Z" fill="#FFC728"/>
<path d="M54.2539 22.384H56.1584V21.9089C56.1584 15.1941 60.8409 14.1664 63.9014 14.1664C65.2438 14.1664 66.1174 14.3653 66.1174 14.3653V20.4466C66.1174 20.4466 65.5233 20.2882 64.8681 20.2882C63.8053 20.2882 62.6812 20.6418 62.6812 21.9862V22.3803H67.6462V21.9052C67.6462 15.2309 72.9227 13.415 76.3589 13.415C79.3874 13.415 81.1987 14.5606 81.1987 14.5606L79.8883 20.5239C79.8883 20.5239 78.8254 19.7357 77.1714 19.7357C75.8289 19.7357 74.1749 20.4871 74.1749 21.9862V22.3803H84.4484V42.7199H77.9227V28.4616H74.1749V42.7199H67.6491V28.4616H62.6841V42.7199H56.1584V28.4616H54.2539V22.3803V22.384Z" fill="#1D2F38"/>
<path d="M85.8379 14.4863H92.3637V33.7209C92.3637 35.6546 92.6432 36.2476 93.7061 36.2476C94.0177 36.2476 94.3613 36.1703 94.3613 36.1703V42.7672C94.3613 42.7672 93.3945 42.9256 92.2064 42.9256C88.9916 42.9256 85.8379 41.6622 85.8379 34.8295V14.4863V14.4863Z" fill="#1D2F38"/>
<path d="M96.0781 22.3837H102.604V42.7232H96.0781V22.3837ZM96.1393 13.8125H102.54V19.8164H96.1393V13.8125Z" fill="#1D2F38"/>
<path d="M112.864 30.0487H112.989V29.6914C112.989 28.3875 112.24 27.8755 110.991 27.8755C108.868 27.8755 106.62 29.614 106.62 29.614L104.777 24.2805C104.777 24.2805 107.526 21.9121 112.051 21.9121C116.576 21.9121 119.515 24.7557 119.515 30.0081V42.7268H113.551V41.5039C113.551 40.9514 113.612 40.3584 113.612 40.3584H113.551C113.551 40.3584 112.334 43.202 109.148 43.202C106.431 43.202 103.746 41.0288 103.746 36.804C103.746 30.4833 110.365 30.0523 112.864 30.0523V30.0487ZM111.052 37.7911C112.27 37.7911 113.143 36.2514 113.143 34.8297V34.1593H112.738C111.303 34.1593 109.771 34.7523 109.771 36.292C109.771 37.2018 110.208 37.7911 111.052 37.7911V37.7911Z" fill="#1D2F38"/>
<path d="M122.257 28.8222H120.26V22.741H122.415V16.8955H128.783V22.741H132.094V28.8222H128.783V33.6401C128.783 35.9717 130.251 36.2479 131.189 36.2479C131.876 36.2479 132.313 36.1706 132.313 36.1706V42.7675C132.313 42.7675 131.314 42.9258 129.878 42.9258C126.882 42.9258 122.26 41.8208 122.26 34.8298V28.8259L122.257 28.8222Z" fill="#1D2F38"/>
<path d="M142.24 21.9121C147.359 21.9121 149.922 26.1001 149.922 31.3894C149.922 32.2992 149.797 33.9162 149.797 33.9162H140.056C140.306 36.1667 141.649 37.0765 143.396 37.0765C145.926 37.0765 147.735 35.2201 147.735 35.2201L149.89 40.4726C149.89 40.4726 147.423 43.1983 142.866 43.1983C136.433 43.1983 133.498 37.9458 133.498 32.5349C133.498 26.6121 136.713 21.9121 142.24 21.9121V21.9121ZM144.051 29.7724C144.019 28.1149 143.239 27.0872 142.208 27.0872C141.023 27.0872 140.335 28.1554 140.146 29.7724H144.048H144.051Z" fill="#1D2F38"/>
<path d="M4.73355 4.29146L4.32084 4.53156C3.751 4.86309 3.50153 5.71614 3.76363 6.43692L20.3855 52.1483C20.6476 52.8691 21.322 53.1846 21.8919 52.8531L22.3046 52.613C22.8744 52.2815 23.1239 51.4284 22.8618 50.7076L6.23989 4.99627C5.97779 4.27549 5.30338 3.95994 4.73355 4.29146Z" fill="#768F9C"/>
<path d="M5.01318 7.91326C6.56936 7.47796 7.55192 5.52937 7.20777 3.56098C6.86363 1.59258 5.32311 0.349755 3.76693 0.785057C2.21075 1.22036 1.2282 3.16895 1.57234 5.13734C1.91649 7.10574 3.457 8.34856 5.01318 7.91326Z" fill="#768F9C"/>
<path d="M33.0398 8.70423C31.115 8.15909 28.1826 7.7355 26.8431 7.625C26.5402 13.4373 26.2315 19.2497 25.9258 25.062C26.846 25.1394 29.5658 25.6993 30.4802 25.8834C31.4324 19.3491 32.3176 14.4613 33.0427 8.70791L33.0398 8.70423Z" fill="#FEAD1C"/>
<path d="M27.8265 24.2C22.055 23.2718 16.1203 24.3584 10.6952 27.4855C8.65393 21.8205 6.61553 16.1592 4.57422 10.4942C11.9911 6.22147 20.0573 4.54554 27.9692 5.4406C28.9127 5.54742 29.5941 6.63769 29.4747 7.82373C28.9244 13.2825 28.3769 18.7375 27.8265 24.1963V24.2Z" fill="#FFC728"/>
</g>
<defs>
<clipPath id="clip0_139_17">
<rect width="155" height="55" fill="white"/>
</clipPath>
</defs>
</svg>
